<?xml version="1.0" encoding="UTF-8" standalone="no"?>
<svg width="764px" height="386px" viewBox="0 0 764 386" version="1.1" xmlns="http://www.w3.org/2000/svg" xmlns:xlink="http://www.w3.org/1999/xlink">
    <!-- Generator: Sketch 46.2 (44496) - http://www.bohemiancoding.com/sketch -->
    <title>Screenshot</title>
    <desc>Created with Sketch.</desc>
    <defs>
        <rect id="path-1" x="0" y="0" width="698.666667" height="440"></rect>
        <rect id="path-3" x="0" y="1" width="699.333333" height="448" rx="8"></rect>
        <filter x="-3.3%" y="-4.2%" width="106.6%" height="110.3%" filterUnits="objectBoundingBox" id="filter-4">
            <feOffset dx="0" dy="4" in="SourceAlpha" result="shadowOffsetOuter1"></feOffset>
            <feGaussianBlur stdDeviation="7" in="shadowOffsetOuter1" result="shadowBlurOuter1"></feGaussianBlur>
            <feColorMatrix values="0 0 0 0 0   0 0 0 0 0   0 0 0 0 0  0 0 0 0.05 0" type="matrix" in="shadowBlurOuter1"></feColorMatrix>
        </filter>
    </defs>
    <g id="Website" stroke="none" stroke-width="1" fill="none" fill-rule="evenodd">
        <g id="Home-page" transform="translate(-338.000000, -439.000000)">
            <g id="Hero">
                <g id="Screenshot" transform="translate(340.000000, 441.000000)">
                    <path d="M730.200313,0 L29.8042336,0 C13.3460953,0 0,13.3959386 0,29.920639 L0,498.666667 L759.997727,498.666667 L759.997727,29.920639 C760,13.3959386 746.653905,0 730.200313,0 Z" id="Shape" stroke-opacity="0.25" stroke="#ECEFF3" stroke-width="4"></path>
                    <g id="Group-20" transform="translate(32.000000, 29.333333)">
                        <mask id="mask-2" fill="white">
                            <use xlink:href="#path-1"></use>
                        </mask>
                        <g id="Mask"></g>
                        <g mask="url(#mask-2)">
                            <g transform="translate(-1.000000, 0.000000)">
                                <g id="Screen">
                                    <use fill="black" fill-opacity="1" filter="url(#filter-4)" xlink:href="#path-3"></use>
                                    <use fill="#FFFFFF" fill-rule="evenodd" xlink:href="#path-3"></use>
                                </g>
                                <g id="Group-17" stroke-width="1" fill-rule="evenodd" transform="translate(0.000000, 0.000000)">
                                    <ellipse id="Oval-2" fill="#AAB0B7" cx="347.897898" cy="163.188367" rx="18.9189189" ry="18.9509071"></ellipse>
                                    <rect id="Rectangle-1" fill="#E9ECF3" x="0" y="34.7433298" width="699.58137" height="34.7433298"></rect>
                                    <rect id="Rectangle-7" fill-opacity="0.8" fill="#364347" x="17.8678679" y="48.430096" width="88.2882883" height="8.4226254" rx="4.2113127"></rect>
                                    <rect id="Rectangle-7" fill-opacity="0.35" fill="#364347" x="633.783784" y="49.4829242" width="43.9560894" height="4.78663934" rx="2.39331967"></rect>
                                    <rect id="Rectangle-7" fill-opacity="0.35" fill="#364347" x="579.97812" y="49.721675" width="43.9560894" height="4.78663934" rx="2.39331967"></rect>
                                    <rect id="Rectangle-7" fill-opacity="0.35" fill="#364347" x="526.03201" y="49.721675" width="43.9560894" height="4.78663934" rx="2.39331967"></rect>
                                    <rect id="Rectangle-7" fill-opacity="0.35" fill="#364347" x="472.085901" y="49.721675" width="43.9560894" height="4.78663934" rx="2.39331967"></rect>
                                    <rect id="Rectangle-7" fill-opacity="0.35" fill="#364347" x="418.139791" y="49.721675" width="43.9560894" height="4.78663934" rx="2.39331967"></rect>
                                    <rect id="Rectangle-7" fill="#02BAF2" x="364.193681" y="49.721675" width="43.9560894" height="4.78663934" rx="2.39331967"></rect>
                                    <rect id="Rectangle-1" fill="#24292E" x="0" y="0" width="700" height="34.7433298"></rect>
                                    <path d="M35.2893894,11.1293297 C33.4315983,10.7416549 30.9775108,10.5282817 28.3783784,10.5282817 C25.7792459,10.5282817 23.3251585,10.7416549 21.4676009,11.1293297 C19.011645,11.6414721 17.8678679,12.4086329 17.8678679,13.5431137 C17.8678679,13.6266381 17.8746413,13.7080568 17.8858525,13.7716944 C18.0568235,15.5795174 19.3652653,24.5980435 28.3783784,24.5980435 C37.3889223,24.5980435 38.6999333,15.5795174 38.8690357,13.7871359 C38.8821154,13.7073549 38.8888889,13.6259362 38.8888889,13.5431137 C38.8888889,12.4086329 37.7451118,11.6414721 35.2893894,11.1293297 L35.2893894,11.1293297 Z M28.3783784,15.2734953 C22.6608942,15.2734953 19.1501502,14.2655878 19.1501502,13.5431137 C19.1501502,12.8204057 22.6606607,11.8127321 28.3783784,11.8127321 C34.0960961,11.8127321 37.6061395,12.8206396 37.6061395,13.5431137 C37.6061395,14.2655878 34.0958625,15.2734953 28.3783784,15.2734953 L28.3783784,15.2734953 Z" id="Shape" fill="#FAD46B"></path>
                                    <rect id="Rectangle-7" fill="#FFFFFF" x="49.3993994" y="15.7924226" width="37.8378378" height="4.2113127" rx="2.10565635"></rect>
                                    <rect id="Rectangle-9" stroke="#E9EDF5" stroke-width="2" x="18.8678679" y="91.543223" width="260.762763" height="23.2678762" rx="2"></rect>
                                    <path d="M267.625367,103.229254 C267.625367,104.72508 266.410171,105.94233 264.91687,105.94233 C263.423569,105.94233 262.208373,104.72508 262.208373,103.229254 C262.208373,101.733429 263.423569,100.516178 264.91687,100.516178 C266.410171,100.516178 267.625367,101.733429 267.625367,103.229254 L267.625367,103.229254 Z M270.720792,108.267824 C270.720792,108.061921 270.636151,107.862074 270.497099,107.722787 L268.423406,105.645588 C268.913112,104.937039 269.173079,104.089202 269.173079,103.229254 C269.173079,100.87348 267.268667,98.9658484 264.91687,98.9658484 C262.565072,98.9658484 260.660661,100.87348 260.660661,103.229254 C260.660661,105.585028 262.565072,107.49266 264.91687,107.49266 C265.775367,107.49266 266.621772,107.232253 267.329125,106.741719 L269.402818,108.812862 C269.54187,108.958205 269.74138,109.042989 269.946935,109.042989 C270.370138,109.042989 270.720792,108.691743 270.720792,108.267824 L270.720792,108.267824 Z" id="" fill="#E9EDF5"></path>
                                    <rect id="Rectangle-7" fill="#AAB0B7" x="17.8678679" y="131.603522" width="37.8378378" height="4.2113127" rx="2.10565635"></rect>
                                    <rect id="Rectangle-7" fill="#AAB0B7" x="228.078078" y="131.603522" width="52.5525526" height="4.2113127" rx="2.10565635"></rect>
                                    <rect id="Rectangle-7" fill="#ECEFF3" transform="translate(294.294294, 180.033618) rotate(90.000000) translate(-294.294294, -180.033618) " x="283.783784" y="177.927962" width="21.021021" height="4.2113127" rx="2.10565635"></rect>
                                    <rect id="Divider" fill="#E9EDF5" transform="translate(149.249249, 152.660085) scale(1, -1) translate(-149.249249, -152.660085) " x="17.8678679" y="151.607257" width="262.762763" height="2.10565635" rx="1.05282817"></rect>
                                    <rect id="Divider" fill="#E9EDF5" transform="translate(503.453453, 125.286553) scale(1, -1) translate(-503.453453, -125.286553) " x="328.978979" y="124.233725" width="348.948949" height="2.10565635" rx="1.05282817"></rect>
                                    <rect id="Divider" fill="#E9EDF5" transform="translate(304.804805, 248.965637) scale(1, -1) rotate(-90.000000) translate(-304.804805, -248.965637) " x="146.641419" y="247.913437" width="316.326771" height="2.10439932" rx="1.05219966"></rect>
                                    <rect id="Rectangle-7" fill="#596569" x="240.690691" y="171.610992" width="29.4294294" height="5.26414087" rx="2.63207044"></rect>
                                    <rect id="Rectangle-7" fill="#596569" x="637.987988" y="160.029883" width="39.9399399" height="7.36979722" rx="3.68489861"></rect>
                                    <rect id="Rectangle-7" fill="#596569" x="51.5015015" y="171.610992" width="126.126126" height="5.26414087" rx="2.63207044"></rect>
                                    <rect id="Rectangle-7" fill="#FAD46B" x="28.3783784" y="169.505336" width="15.7657658" height="9.47545357" rx="1.5"></rect>
                                    <rect id="Rectangle-7" fill="#596569" x="240.690691" y="202.14301" width="29.4294294" height="5.26414087" rx="2.63207044"></rect>
                                    <rect id="Rectangle-7" fill="#596569" x="51.5015015" y="202.14301" width="94.5945946" height="5.26414087" rx="2.63207044"></rect>
                                    <rect id="Rectangle-7" fill="#FAD46B" x="28.3783784" y="200.037353" width="15.7657658" height="9.47545357" rx="1.5"></rect>
                                    <rect id="Rectangle-7" fill="#DBE0E9" x="240.690691" y="232.675027" width="29.4294294" height="5.26414087" rx="2.63207044"></rect>
                                    <rect id="Rectangle-7" fill="#DBE0E9" x="28.3783784" y="232.675027" width="142.942943" height="5.26414087" rx="2.63207044"></rect>
                                    <rect id="Rectangle-7" fill="#DBE0E9" x="240.690691" y="324.271078" width="29.4294294" height="5.26414087" rx="2.63207044"></rect>
                                    <rect id="Rectangle-7" fill="#DBE0E9" x="28.3783784" y="324.271078" width="126.126126" height="5.26414087" rx="2.63207044"></rect>
                                    <rect id="Rectangle-7" fill="#DBE0E9" x="240.690691" y="293.739061" width="29.4294294" height="5.26414087" rx="2.63207044"></rect>
                                    <rect id="Rectangle-7" fill="#DBE0E9" x="28.3783784" y="293.739061" width="105.105105" height="5.26414087" rx="2.63207044"></rect>
                                    <rect id="Rectangle-9" fill="#02BAF2" x="17.8678679" y="253.73159" width="262.762763" height="25.2678762" rx="2"></rect>
                                    <rect id="Rectangle-7" fill="#FFFFFF" x="240.690691" y="263.207044" width="29.4294294" height="5.26414087" rx="2.63207044"></rect>
                                    <rect id="Rectangle-7" fill="#FFFFFF" x="28.3783784" y="263.207044" width="134.534535" height="5.26414087" rx="2.63207044"></rect>
                                    <g id="Group-13" transform="translate(542.342342, 90.543223)">
                                        <rect id="Rectangle-2" stroke="#4A5559" stroke-width="2" x="1" y="1" width="73.6756757" height="21.1622198" rx="2"></rect>
                                        <rect id="Rectangle-7" fill="#4A5559" x="6.30630631" y="9.47545357" width="63.0630631" height="4.2113127" rx="2.10565635"></rect>
                                    </g>
                                    <g id="Group-14" transform="translate(626.426426, 90.543223)">
                                        <rect id="Rectangle-2" stroke="#FF5A5F" stroke-width="2" x="1" y="1" width="49.5015015" height="21.1622198" rx="2"></rect>
                                        <rect id="Rectangle-7" fill="#FF5A5F" x="6.30630631" y="9.47545357" width="38.8888889" height="4.2113127" rx="2.10565635"></rect>
                                    </g>
                                    <rect id="Rectangle-7" fill="#596569" x="328.978979" y="202.14301" width="29.4294294" height="5.26414087" rx="2.63207044"></rect>
                                    <rect id="Rectangle-7" fill="#AAB0B7" x="328.978979" y="216.882604" width="84.0840841" height="5.26414087" rx="2.63207044"></rect>
                                    <rect id="Rectangle-7" fill="#596569" x="328.978979" y="249.520277" width="33.6336336" height="5.26414087" rx="2.63207044"></rect>
                                    <rect id="Rectangle-7" fill="#AAB0B7" x="328.978979" y="264.259872" width="75.6756757" height="5.26414087" rx="2.63207044"></rect>
                                    <rect id="Rectangle-7" fill="#596569" x="328.978979" y="296.897545" width="31.5315315" height="5.26414087" rx="2.63207044"></rect>
                                    <rect id="Rectangle-7" fill="#AAB0B7" x="328.978979" y="311.63714" width="306.906907" height="5.26414087" rx="2.63207044"></rect>
                                    <rect id="Rectangle-7" fill="#AAB0B7" x="328.978979" y="327.429562" width="298.498498" height="5.26414087" rx="2.63207044"></rect>
                                    <rect id="Rectangle-7" fill="#AAB0B7" x="328.978979" y="343.221985" width="313.213213" height="5.26414087" rx="2.63207044"></rect>
                                    <rect id="Rectangle-7" fill="#596569" x="382.582583" y="160.029883" width="136.636637" height="7.36979722" rx="3.68489861"></rect>
                                    <ellipse id="Oval-3" fill="#ECEFF3" cx="668.993994" cy="17.3716649" rx="8.93393393" ry="8.94903948"></ellipse>
                                </g>
                            </g>
                        </g>
                    </g>
                </g>
            </g>
        </g>
    </g>
</svg>